<?xml version="1.0" encoding="UTF-8"?>
<svg id="Layer_1" data-name="Layer 1" xmlns="http://www.w3.org/2000/svg" xmlns:xlink="http://www.w3.org/1999/xlink" viewBox="0 0 732.26 1311.32">
  <defs>
    <style>
      .cls-1 {
        fill: #085cf0;
      }

      .cls-2 {
        fill: none;
      }

      .cls-3 {
        clip-path: url(#clippath-1);
      }

      .cls-4 {
        fill: #5f9aff;
      }
    </style>
    <clipPath id="clippath-1">
      <rect class="cls-2" x="923.24" y="2395.07" width="1920" height="1080"/>
    </clipPath>
  </defs>
  <g id="Brand_Pattern-2" data-name="Brand Pattern">
    <g class="cls-3">
      <path class="cls-4" d="M685.52,3219.37c-31.19,0-62.38-4.93-92.71-14.78-33.01-10.72-64.26-29.87-104.49-64.03-38.26-32.48-81.87-76.09-142.22-136.44l-451.32-451.32c-60.35-60.35-103.96-103.96-136.44-142.22-34.15-40.23-53.3-71.48-64.03-104.49-19.71-60.64-19.71-124.76,0-185.41,10.74-33.02,29.89-64.27,64.03-104.49,32.52-38.31,76.11-81.89,136.44-142.22l478.06-478.06c60.33-60.33,103.91-103.91,142.22-136.43,40.22-34.15,71.47-53.29,104.47-64.03,60.66-19.71,124.78-19.71,185.42,0,33,10.72,64.24,29.87,104.49,64.03,38.21,32.43,81.84,76.06,142.22,136.44l451.32,451.32c60.38,60.38,104.01,104.01,136.44,142.23,34.16,40.24,53.31,71.49,64.03,104.48,19.7,60.65,19.7,124.76,0,185.41-10.72,33.01-29.87,64.26-64.03,104.49-32.48,38.26-76.09,81.87-136.44,142.22l-478.06,478.06c-60.35,60.35-103.96,103.96-142.22,136.44-40.23,34.15-71.48,53.3-104.49,64.03-30.32,9.85-61.51,14.78-92.7,14.78ZM-41.57,1937.62c-58.82,58.82-101.32,101.32-131.47,136.83-25.74,30.32-40.25,53.16-47.05,74.06-13.79,42.44-13.79,87.33,0,129.78,6.79,20.89,21.29,43.73,47.04,74.05,30.1,35.46,72.62,77.98,131.47,136.82l451.32,451.32c58.84,58.84,101.36,101.36,136.82,131.47,30.33,25.75,53.17,40.26,74.05,47.04,42.46,13.79,87.33,13.79,129.79,0,20.89-6.79,43.73-21.29,74.05-47.04,35.46-30.1,77.98-72.62,136.83-131.47l478.06-478.06c58.85-58.85,101.36-101.36,131.47-136.82,25.75-30.33,40.26-53.17,47.04-74.05,13.79-42.46,13.79-87.34,0-129.79-6.78-20.87-21.29-43.71-47.05-74.05-30.06-35.41-72.59-77.95-131.46-136.83l-451.32-451.32c-58.87-58.87-101.41-101.4-136.82-131.46-30.34-25.76-53.18-40.27-74.05-47.05-42.46-13.79-87.34-13.79-129.8,0-20.88,6.79-43.72,21.3-74.05,47.05-35.51,30.15-78.01,72.65-136.83,131.47L-41.57,1937.62Z"/>
    </g>
  </g>
  <g>
    <path class="cls-1" d="M733.23,62.2c-37.33,32.14-79.96,74.77-138.19,133l-146.83,146.83c-60.32,60.33-103.91,103.91-136.43,142.22-34.15,40.22-53.3,71.46-64.03,104.47-9.85,30.33-14.78,61.53-14.78,92.72s4.92,62.38,14.78,92.71c10.71,32.99,29.86,64.24,64.03,104.48,17.84,21.02,39.07,43.68,64.61,69.87,18.69,19.16,39.69,40.22,63.37,63.9,2.78,2.78,5.6,5.6,8.45,8.45l146.84,146.83c58.26,58.26,100.92,100.93,138.18,132.99v-122.67c-21.75-21.17-46.27-45.68-74.54-73.96l-146.84-146.83c-2.86-2.86-5.67-5.67-8.45-8.45-23.82-23.83-44.86-44.91-63.37-63.9-23.85-24.48-43.54-45.5-59.64-64.47-25.76-30.34-40.27-53.18-47.05-74.05-13.79-42.46-13.79-87.34,0-129.8,6.79-20.88,21.3-43.72,47.05-74.04,30.14-35.51,72.64-78.01,131.46-136.83l146.83-146.83c28.28-28.28,52.78-52.78,74.55-73.95V62.2Z"/>
    <path class="cls-4" d="M733.23,596.59c-36.84,31.91-79.03,74.1-136.28,131.35l-478.06,478.06c-39.93,39.93-72.53,72.53-99.43,101.1h125.67c11.66-11.72,24.12-24.18,37.4-37.46l257.23-257.24,63.64-63.64,157.19-157.18c27.46-27.45,51.36-51.35,72.64-72.1v-122.89Z"/>
  </g>
</svg>