<?xml version="1.0" encoding="UTF-8"?>
<svg id="Layer_2" data-name="Layer 2" xmlns="http://www.w3.org/2000/svg" viewBox="0 0 1133.77 443.5">
  <defs>
    <style>
      .cls-1 {
        fill: #0043b8;
      }

      .cls-2 {
        fill: #5f9aff;
      }
    </style>
  </defs>
  <g id="Layer_1-2" data-name="Layer 1">
    <path class="cls-2" d="M1133.77,443.5h-126.5l-164.62-164.62c-58.84-58.85-101.36-101.36-136.82-131.47-30.33-25.75-53.17-40.26-74.05-47.04-21.23-6.9-43.07-10.35-64.9-10.35s-43.67,3.45-64.89,10.35c-20.89,6.78-43.73,21.29-74.06,47.04-35.47,30.11-77.98,72.63-136.82,131.47l-164.62,164.62H0c22.95-23.74,49.58-50.37,80.64-81.43l146.83-146.83c60.35-60.35,103.95-103.95,142.22-136.44,40.23-34.15,71.48-53.3,104.49-64.03,25.11-8.16,50.82-12.94,76.63-14.34h32.15c25.81,1.4,51.51,6.18,76.63,14.34,33,10.73,64.25,29.88,104.48,64.03,38.27,32.48,81.87,76.09,142.22,136.44l146.83,146.83c31.07,31.06,57.69,57.69,80.65,81.43Z"/>
    <path class="cls-1" d="M1053.12,362.07l-146.83-146.83c-60.35-60.35-103.95-103.96-142.22-136.44-40.23-34.15-71.48-53.3-104.48-64.03-25.12-8.16-50.82-12.94-76.63-14.34-10.71-.58-21.44-.58-32.15,0-25.81,1.4-51.52,6.18-76.63,14.34-33.01,10.73-64.26,29.88-104.49,64.03-38.27,32.49-81.87,76.09-142.22,136.44l-146.83,146.83c-31.06,31.06-57.69,57.69-80.64,81.43h126.49l164.62-164.62c58.84-58.84,101.35-101.36,136.82-131.47,30.33-25.75,53.17-40.26,74.06-47.04,21.22-6.9,43.06-10.35,64.89-10.35s43.67,3.45,64.9,10.35c20.88,6.78,43.72,21.29,74.05,47.04,35.46,30.11,77.98,72.62,136.82,131.47l164.62,164.62h126.5c-22.96-23.74-49.58-50.37-80.65-81.43Z"/>
  </g>
</svg>