<?xml version="1.0" encoding="UTF-8"?>
<svg id="Layer_2" data-name="Layer 2" xmlns="http://www.w3.org/2000/svg" viewBox="0 0 80.29 87.62">
  <defs>
    <style>
      .cls-1 {
        fill: #001522;
      }

      .cls-2 {
        fill: #0066b3;
      }

      .cls-3 {
        fill: #010101;
      }
    </style>
  </defs>
  <g id="Layer_1-2" data-name="Layer 1">
    <path class="cls-2" d="M32.87,22.65c1.8,1.05,3.85,1.68,6.06,1.68s4.28-.63,6.06-1.68c1.44-.83,2.68-1.92,3.67-3.26,1.51-2.02,2.43-4.5,2.43-7.23s-.92-5.21-2.43-7.23c-1-1.31-2.24-2.43-3.67-3.26-1.8-1.05-3.85-1.68-6.06-1.68s-4.28.63-6.06,1.68c-1.44.83-2.68,1.92-3.67,3.26-1.51,2.02-2.43,4.5-2.43,7.23s.92,5.21,2.43,7.23c1,1.31,2.24,2.43,3.67,3.26M35.28,5.89c1.07-.63,2.31-1.02,3.65-1.02s2.58.39,3.65,1.02c2.17,1.27,3.65,3.6,3.65,6.28s-1.49,5.01-3.65,6.28c-1.07.63-2.31,1.02-3.65,1.02s-2.58-.39-3.65-1.02c-2.17-1.27-3.65-3.6-3.65-6.28s1.49-5.01,3.65-6.28M58.39,38.83v14.67l-4.87,2.12v-16.69c0-2.68-2.19-4.87-4.87-4.87h-19.46c-2.68,0-4.87,2.19-4.87,4.87v9.73h-4.87v-9.83c0-1.75.51-3.36,1.36-4.77,0-.02.02-.07.05-.1.44-.75.97-1.46,1.61-2.07,1.75-1.68,4.11-2.73,6.72-2.73h19.46c2.6,0,4.97,1.05,6.72,2.73.63.61,1.17,1.31,1.61,2.07,0,.02.02.07.05.1.85,1.41,1.36,3.02,1.36,4.77"/>
    <path class="cls-3" d="M48.66,57.08v.63l.32-.15c-.1-.17-.22-.34-.32-.49"/>
    <path class="cls-1" d="M4.87,53.29l-4.87,2.12v-16.59c0-1.78.54-3.43,1.41-4.84.44-.75.97-1.46,1.61-2.07,1.75-1.68,4.11-2.73,6.72-2.73h8.66c-.63.71-1.22,1.44-1.7,2.29-.49.83-.88,1.68-1.22,2.58h-5.74c-2.68,0-4.87,2.19-4.87,4.87v14.38ZM19.46,24.33c2.22,0,4.28-.63,6.06-1.68-1-1.27-1.8-2.68-2.41-4.21-1.07.63-2.31,1.02-3.65,1.02-4.01,0-7.3-3.28-7.3-7.3s3.29-7.3,7.3-7.3c1.34,0,2.58.39,3.65,1.02.61-1.51,1.44-2.92,2.41-4.21-1.8-1.05-3.84-1.68-6.06-1.68C12.75,0,7.3,5.45,7.3,12.17s5.45,12.17,12.17,12.17M59.46,29.2c.61.71,1.19,1.44,1.68,2.24.51.83.9,1.73,1.24,2.63h5.74c2.68,0,4.87,2.19,4.87,4.87v14.04c1.78.73,3.41,1.73,4.87,3.02v-17.15c0-1.78-.54-3.43-1.41-4.84-.44-.75-.97-1.46-1.61-2.07-1.75-1.68-4.11-2.73-6.72-2.73h-8.66ZM58.39,19.46c-1.34,0-2.58-.39-3.65-1.02-.61,1.51-1.44,2.92-2.41,4.21,1.8,1.05,3.85,1.68,6.06,1.68,6.72,0,12.17-5.45,12.17-12.17S65.11,0,58.39,0c-2.21,0-4.28.63-6.06,1.68,1,1.27,1.83,2.68,2.41,4.21,1.07-.63,2.31-1.02,3.65-1.02,4.02,0,7.3,3.29,7.3,7.3s-3.29,7.3-7.3,7.3M77.91,64.14c-.12-.32-.32-.58-.49-.88-1.92-3.65-5.43-6.04-9.29-6.6-1.61-.24-3.24-.15-4.87.27-.63.17-1.24.32-1.87.58l-6.38,2.77-1.27.56-3.5,1.51s.02-.19.02-.29c0-.41-.07-.83-.12-1.22-.17-1.17-.56-2.26-1.17-3.24l-.32.15v-.63c-1.56-2.14-4.06-3.55-6.89-3.55h-25.25l-6.79,2.95-4.87,2.12-4.87,2.12v5.31l.75-.32,8.98-3.92,7.81-3.38h24.23c1.05,0,2,.46,2.65,1.17.61.66,1,1.53,1,2.48,0,1.44-.85,2.68-2.07,3.26-.49.24-1.02.39-1.58.39h-17.42v4.87h17.42c1.27,0,2.46-.29,3.53-.78l9.32-4.04,8.71-3.77c1.58-.68,3.26-.75,4.82-.39,1.19.29,2.31.85,3.24,1.65.85.75,1.58,1.66,2.07,2.78l.49,1.17-35.5,15.52H0v4.87h39.44l40.85-17.86-2.39-5.6v-.02Z"/>
  </g>
</svg>