<?xml version="1.0" encoding="UTF-8"?>
<svg id="Layer_2" data-name="Layer 2" xmlns="http://www.w3.org/2000/svg" viewBox="0 0 86.15 79.32">
  <defs>
    <style>
      .cls-1 {
        fill: #001522;
      }

      .cls-2 {
        fill: #0066b3;
      }
    </style>
  </defs>
  <g id="Layer_1-2" data-name="Layer 1">
    <path class="cls-1" d="M80.55,0l-5.6,9.67h3.39v29.99c0,19.43-15.82,35.25-35.25,35.25-14.76,0-27.41-9.12-32.65-22.03h-4.69c5.46,15.38,20.12,26.44,37.35,26.44,21.86,0,39.66-17.8,39.66-39.66V9.67h3.39l-5.6-9.67Z"/>
    <path class="cls-1" d="M11.17,39.66h-3.33C7.84,20.23,23.66,4.41,43.1,4.41c13.26,0,24.83,7.38,30.85,18.22v-7.84C66.67,5.77,55.55,0,43.1,0,21.24,0,3.44,17.8,3.44,39.66H0l4.12,7.12,1.48,2.56,2.66-4.6,2.93-5.07h-.02Z"/>
    <path class="cls-2" d="M43.1,37.46c6.08,0,11.02-4.93,11.02-11.01s-4.94-11.02-11.02-11.02-11.02,4.94-11.02,11.02,4.94,11.01,11.02,11.01M43.1,19.83c3.64,0,6.61,2.97,6.61,6.61s-2.97,6.61-6.61,6.61-6.61-2.97-6.61-6.61,2.97-6.61,6.61-6.61"/>
    <path class="cls-2" d="M57.99,44.33c-1.59-1.52-3.72-2.47-6.08-2.47h-17.63c-2.36,0-4.5.95-6.08,2.47-.57.55-1.06,1.19-1.46,1.87-.79,1.3-1.28,2.78-1.28,4.39v8.9h4.41v-8.81c0-2.42,1.98-4.41,4.41-4.41h17.63c2.42,0,4.41,1.98,4.41,4.41v4.41h-22.03v4.41h26.44v-8.9c0-1.61-.48-3.11-1.28-4.39-.4-.68-.88-1.32-1.45-1.87"/>
  </g>
</svg>