<?xml version="1.0" encoding="UTF-8"?>
<svg id="Layer_2" data-name="Layer 2" xmlns="http://www.w3.org/2000/svg" viewBox="0 0 64.48 87.49">
  <defs>
    <style>
      .cls-1 {
        fill: #001522;
      }

      .cls-2 {
        fill: #0066b3;
      }
    </style>
  </defs>
  <g id="Layer_1-2" data-name="Layer 1">
    <path class="cls-1" d="M32.24,0C14.47,0,0,14.46,0,32.24c0,9.52,4.17,18.05,10.75,23.96,1.33,1.2,2.77,2.3,4.3,3.27,4.98,3.16,10.87,5.01,17.19,5.01,4.58,0,8.94-.97,12.9-2.71v-4.77c-3.87,2.02-8.25,3.18-12.9,3.18-15.41,0-27.94-12.53-27.94-27.94S16.83,4.3,32.24,4.3s27.94,12.53,27.94,27.94c0,8.92-4.21,16.85-10.75,21.99v25.96l-17.19-9.54-17.19,9.54v-15.71c-1.51-.82-2.92-1.74-4.3-2.73v25.75l21.49-11.95,21.49,11.95v-31.27c6.58-5.91,10.75-14.44,10.75-23.96C64.48,14.49,50.01.02,32.24.02v-.02Z"/>
    <path class="cls-2" d="M50.85,29.29l2.41-1.74-1.27-3.89h-13.52l-4.17-12.87h-4.08l-4.17,12.87h-13.52l-1.27,3.89,2.88,2.08,8.06,5.87-4.19,12.88,3.31,2.41,2.73-1.98,8.23-5.97,8.43,6.12,2.52,1.83,3.31-2.41-4.19-12.88,8.53-6.21h-.02ZM37.27,33.85l.47,1.48,2.62,8.06-8.12-5.91-8.12,5.91,2.62-8.06.47-1.48-8.12-5.91h10.04l.47-1.48,2.62-8.06,2.62,8.06.47,1.48h10.04l-8.12,5.91h.04Z"/>
  </g>
</svg>