<?xml version="1.0" encoding="UTF-8"?>
<svg id="Layer_2" data-name="Layer 2" xmlns="http://www.w3.org/2000/svg" viewBox="0 0 86.38 85.9">
  <defs>
    <style>
      .cls-1 {
        fill: #001522;
      }

      .cls-2 {
        fill: #0a67b2;
      }

      .cls-3 {
        fill: #0066b3;
      }
    </style>
  </defs>
  <g id="Layer_1-2" data-name="Layer 1">
    <path class="cls-3" d="M71.57,34.25c-4.51,0-8.18,3.67-8.18,8.18v.7c0,.15-.08.27-.13.32-.24.25-.77.04-.77-.32v-20.46l8.14-6c1.8-1.34,2.19-3.9.86-5.73-1.34-1.81-3.91-2.2-5.71-.86l-5.7,4.21c-.11.08-.22.17-.37.27-2.36,1.61-5.64,1.63-8.07-.03-.11-.07-.23-.15-.36-.25l-5.67-4.19c-1.81-1.34-4.37-.96-5.72.87-1.33,1.82-.94,4.38.87,5.72l8.26,6.09v20.37c0,.24-.21.45-.45.45-.15,0-.27-.08-.32-.13-.09-.08-.13-.19-.13-.32v-.7c0-4.51-3.67-8.18-8.18-8.18s-8.16,3.67-8.16,8.18v5.5h3.57v-5.5c0-2.54,2.06-4.61,4.59-4.61s4.61,2.07,4.61,4.61v.7c0,1.08.42,2.09,1.19,2.86.76.75,1.77,1.16,2.83,1.16,2.22,0,4.02-1.8,4.02-4.02v-22.17l-9.7-7.15c-.24-.17-.29-.5-.12-.73.17-.23.5-.28.72-.11l5.65,4.17c.18.14.38.28.53.38,3.54,2.42,8.54,2.4,12.02.02.19-.12.39-.26.54-.38l5.67-4.19c.22-.16.56-.11.71.1.18.24.13.57-.1.74l-9.58,7.07v22.26c0,2.22,1.8,4.02,4.02,4.02,1.06,0,2.1-.43,2.86-1.19.75-.77,1.16-1.77,1.16-2.82v-.7c0-2.54,2.07-4.61,4.61-4.61s4.6,2.07,4.6,4.61v5.5h3.57v-5.5c0-4.51-3.66-8.18-8.17-8.18"/>
    <path class="cls-3" d="M55.69,15.23c4.2,0,7.62-3.42,7.62-7.62s-3.42-7.62-7.62-7.62-7.62,3.42-7.62,7.62,3.42,7.62,7.62,7.62M55.69,3.57c2.23,0,4.05,1.82,4.05,4.05s-1.82,4.05-4.05,4.05-4.05-1.82-4.05-4.05,1.82-4.05,4.05-4.05"/>
    <path class="cls-2" d="M39.93,33.45c3.48,0,6.31-2.83,6.31-6.31s-2.83-6.31-6.31-6.31-6.31,2.83-6.31,6.31,2.83,6.31,6.31,6.31M39.93,24.41c1.51,0,2.74,1.23,2.74,2.74s-1.23,2.74-2.74,2.74-2.74-1.23-2.74-2.74,1.23-2.74,2.74-2.74"/>
    <path class="cls-2" d="M65.26,27.14c0,3.48,2.83,6.31,6.31,6.31s6.31-2.83,6.31-6.31-2.83-6.31-6.31-6.31-6.31,2.83-6.31,6.31M74.3,27.14c0,1.51-1.23,2.74-2.74,2.74s-2.74-1.23-2.74-2.74,1.23-2.74,2.74-2.74,2.74,1.23,2.74,2.74"/>
    <rect class="cls-3" x="53.9" y="32.97" width="3.57" height="11.37"/>
    <path class="cls-1" d="M77.12,55.82l-14.12,6.29c-.26-3.12-2.72-4.98-6.75-4.98h-14.7l-10.99-7.31c-.29-.19-.62-.29-.95-.29h-13.49v-5.06H0v36.32h16.12s0-5.06,0-5.06h4.24l18.77,8.74c2.48.99,4.47,1.43,6.29,1.43,3.4,0,6.22-1.56,10.42-4.07l26.6-15.16c1.85-.99,3.19-2.55,3.71-4.28.44-1.48.27-2.98-.49-4.38-1.7-3.15-5.17-4.01-8.54-2.19ZM12.68,77.35H3.44v-29.44h9.24v29.44ZM82.86,61.4c-.26.86-1,1.68-2.09,2.25l-26.66,15.2c-6.26,3.75-8.14,4.63-13.61,2.45l-19.02-8.85h-.03c-.12-.04-.23-.06-.36-.09-.1-.03-.21-.06-.32-.06h-4.66v-19.34h12.98l10.99,7.31c.29.19.62.29.95.29h15.21c3.35,0,3.35,1.46,3.35,2.08s0,2.08-3.35,2.08h-10.14c-.47,0-.93.2-1.26.54l-4.58,4.93c-.65.7-.62,1.78.09,2.43.33.32.75.46,1.18.46.46,0,.92-.19,1.26-.54l4.08-4.37h9.4c2.16,0,3.88-.54,5.06-1.53l17.32-7.72c1.05-.56,2.95-1.21,4.01.76.32.57.39,1.15.22,1.73Z"/>
  </g>
</svg>