<?xml version="1.0" encoding="UTF-8"?>
<svg id="Layer_2" data-name="Layer 2" xmlns="http://www.w3.org/2000/svg" viewBox="0 0 85.78 76.22">
  <defs>
    <style>
      .cls-1 {
        fill: #001522;
      }

      .cls-2 {
        fill: #0066b3;
      }
    </style>
  </defs>
  <g id="Layer_1-2" data-name="Layer 1">
    <path class="cls-1" d="M82.45,23.62L61.13,2.29c-3-3-7.9-3-10.9,0l-4.13,4.13,3.18,3.18,4.13-4.13c1.24-1.24,3.27-1.24,4.51,0l21.33,21.32c2.64,2.64,2.64,6.93,0,9.57l-19.14,19.14-15.16,15.16c-1.29,1.29-3.5,1.29-4.78,0-1.29-1.29-1.31-3.48,0-4.78l11.96-11.96-3.18-3.18-11.96,11.96c-1.29,1.29-3.5,1.29-4.78,0-1.29-1.29-1.31-3.48,0-4.78l1.6-1.6,8.78-8.78,1.6-1.6-3.18-3.18-1.6,1.6-8.78,8.78-1.6,1.6c-1.33,1.31-3.47,1.31-4.78,0-.63-.63-.99-1.49-.99-2.39s.36-1.76.99-2.39l1.6-1.6,8.78-8.78,1.6-1.6-3.18-3.18-10.38,10.38-1.6,1.6c-1.31,1.31-3.48,1.31-4.78,0-.63-.63-.99-1.49-.99-2.39s.36-1.76.99-2.39l15.16-15.17-3.18-3.18-15.16,15.17c-1.49,1.49-2.32,3.48-2.32,5.57s.81,4.08,2.32,5.57c1.51,1.49,3.56,2.3,5.57,2.3h.09v.09c0,2.12.81,4.08,2.32,5.57,1.53,1.53,3.57,2.3,5.57,2.3h.09c-.02,2.05.75,4.11,2.3,5.69,1.49,1.49,3.48,2.32,5.57,2.32h.09c-.02,2.05.75,4.11,2.3,5.66,1.56,1.56,3.47,2.32,5.57,2.32s4.08-.81,5.57-2.32l15.03-15.03,19.29-19.29c4.4-4.4,4.4-11.55,0-15.95h-.02Z"/>
    <path class="cls-2" d="M54.88,21.56l-10.36-10.36-8.98-8.98c-2.96-2.98-7.78-2.96-10.74,0L3.23,23.78c-2.08,2.08-3.23,4.85-3.23,7.81s1.15,5.73,3.23,7.81l1.76,1.76,3.18-3.18-1.76-1.76c-1.24-1.24-1.92-2.87-1.92-4.63s.68-3.38,1.92-4.62L27.96,5.41c1.19-1.2,3.16-1.2,4.38,0l8.98,8.98,10.36,10.36,3.99,3.99-3.18,3.18c-.88.88-2.3.88-3.21,0l-14.74-14.74-3.18,3.18,14.74,14.74c1.31,1.31,3.05,1.99,4.78,1.99s3.48-.65,4.78-1.99l6.39-6.39-7.2-7.2.02.05Z"/>
  </g>
</svg>