<?xml version="1.0" encoding="UTF-8"?>
<svg id="Layer_2" data-name="Layer 2" xmlns="http://www.w3.org/2000/svg" viewBox="0 0 86.58 82.25">
  <defs>
    <style>
      .cls-1 {
        fill: #001522;
      }

      .cls-2 {
        fill: #0066b3;
      }
    </style>
  </defs>
  <g id="Layer_1-2" data-name="Layer 1">
    <path class="cls-2" d="M43.29,58.44c5.97,0,10.82-4.85,10.82-10.82s-4.85-10.82-10.82-10.82-10.82,4.85-10.82,10.82,4.85,10.82,10.82,10.82M43.29,41.12c3.57,0,6.49,2.92,6.49,6.49s-2.92,6.49-6.49,6.49-6.49-2.92-6.49-6.49,2.92-6.49,6.49-6.49"/>
    <path class="cls-2" d="M25.97,71.43v10.82h4.33v-10.82c0-2.38,1.95-4.33,4.33-4.33h17.31c2.38,0,4.33,1.95,4.33,4.33v6.49h-21.64v4.33h25.97v-10.91c0-1.58-.48-3.05-1.26-4.31-.39-.67-.87-1.3-1.43-1.84-1.56-1.49-3.66-2.42-5.97-2.42h-17.31c-2.32,0-4.42.93-5.97,2.42-.56.54-1.04,1.17-1.43,1.84-.78,1.28-1.25,2.73-1.25,4.31v.09Z"/>
    <path class="cls-1" d="M28.14,47.62c0-5.97-4.85-10.82-10.82-10.82s-10.82,4.85-10.82,10.82,4.85,10.82,10.82,10.82,10.82-4.85,10.82-10.82M23.81,47.62c0,3.57-2.92,6.49-6.49,6.49s-6.49-2.92-6.49-6.49,2.92-6.49,6.49-6.49,6.49,2.92,6.49,6.49"/>
    <rect class="cls-2" x="41.12" width="4.33" height="28.14"/>
    <rect class="cls-2" x="49.21" y="12.72" width="29.85" height="4.33" transform="translate(8.26 49.71) rotate(-45)"/>
    <rect class="cls-2" x="60.6" y="28.14" width="23.81" height="4.33"/>
    <rect class="cls-2" x="20.38" y="-.05" width="4.33" height="29.85" transform="translate(-3.92 20.3) rotate(-45)"/>
    <rect class="cls-2" x="2.17" y="28.14" width="23.81" height="4.33"/>
    <path class="cls-1" d="M21.64,77.92H4.33v-6.49c0-2.38,1.95-4.33,4.33-4.33h13.76c.3-.8.65-1.6,1.11-2.34.43-.71.95-1.36,1.49-1.99H8.66c-2.32,0-4.41.93-5.97,2.42-.56.54-1.04,1.17-1.43,1.84-.78,1.28-1.26,2.73-1.26,4.31v10.91h21.64v-4.33Z"/>
    <path class="cls-1" d="M69.26,58.44c5.97,0,10.82-4.85,10.82-10.82s-4.85-10.82-10.82-10.82-10.82,4.85-10.82,10.82,4.85,10.82,10.82,10.82M69.26,41.12c3.57,0,6.49,2.92,6.49,6.49s-2.92,6.49-6.49,6.49-6.49-2.92-6.49-6.49,2.92-6.49,6.49-6.49"/>
    <path class="cls-1" d="M64.93,77.92h17.31v-6.49c0-2.38-1.95-4.33-4.33-4.33h-13.76c-.3-.8-.65-1.6-1.11-2.34-.43-.71-.95-1.36-1.49-1.99h16.36c2.32,0,4.41.93,5.97,2.42.56.54,1.04,1.17,1.43,1.84.78,1.28,1.26,2.73,1.26,4.31v10.91h-21.64v-4.33Z"/>
  </g>
</svg>