<?xml version="1.0" encoding="UTF-8"?>
<svg id="Layer_2" data-name="Layer 2" xmlns="http://www.w3.org/2000/svg" viewBox="0 0 85.14 85.14">
  <defs>
    <style>
      .cls-1 {
        fill: #001522;
      }

      .cls-2 {
        fill: #0066b3;
      }
    </style>
  </defs>
  <g id="Layer_1-2" data-name="Layer 1">
    <path class="cls-1" d="M57.13,0c-15.44,0-28.01,12.57-28.01,28.01v40.33c0,6.79-5.53,12.32-12.32,12.32s-12.32-5.53-12.32-12.32,5.53-12.32,12.32-12.32h7.84v-4.48h-8.96v.07c-8.74.58-15.68,7.86-15.68,16.74s7.53,16.8,16.8,16.8,16.18-6.95,16.74-15.68h.07V28.01c0-12.97,10.55-23.53,23.53-23.53s23.53,10.55,23.53,23.53-10.55,23.53-23.53,23.53h-19.04v4.48h20.17v-.07c14.92-.6,26.89-12.88,26.89-27.94S72.57,0,57.13,0"/>
    <path class="cls-2" d="M8.96,68.34c0,4.32,3.52,7.84,7.84,7.84s7.84-3.52,7.84-7.84-3.52-7.84-7.84-7.84-7.84,3.52-7.84,7.84M20.17,68.34c0,1.86-1.5,3.36-3.36,3.36s-3.36-1.5-3.36-3.36,1.5-3.36,3.36-3.36,3.36,1.5,3.36,3.36"/>
    <path class="cls-1" d="M38.31,32.38l5.36,1.21-2.94,4.64,6.18,6.18,4.64-2.94,1.21,5.36h8.74l1.21-5.36,4.64,2.94,6.18-6.18-2.94-4.64,5.36-1.21v-8.74l-5.36-1.21,2.94-4.64-6.18-6.18-4.64,2.94-1.21-5.36h-8.74l-1.21,5.36-4.64-2.94-6.18,6.18,2.94,4.64-5.36,1.21v8.74ZM42.8,27.22l4.32-.99.38-1.23c.18-.56.4-1.12.69-1.68l.61-1.14-2.37-3.76,1.12-1.12,3.76,2.37,1.14-.6c.56-.29,1.12-.54,1.68-.7l1.23-.38.99-4.33h1.57l.99,4.33,1.23.38c.56.18,1.12.4,1.68.7l1.14.6,3.76-2.37,1.12,1.12-2.37,3.76.6,1.14c.29.56.54,1.12.7,1.68l.38,1.23,4.33.99v1.57l-4.33.99-.38,1.23c-.18.56-.4,1.12-.7,1.68l-.6,1.14,2.37,3.76-1.12,1.12-3.76-2.37-1.14.61c-.56.29-1.12.54-1.68.69l-1.23.38-.99,4.32h-1.57l-.99-4.32-1.23-.38c-.56-.18-1.12-.4-1.68-.69l-1.14-.61-3.76,2.37-1.12-1.12,2.37-3.76-.61-1.14c-.29-.56-.54-1.12-.69-1.68l-.38-1.23-4.32-.99v-1.57Z"/>
    <path class="cls-1" d="M57.13,35.85c4.32,0,7.84-3.52,7.84-7.84s-3.52-7.84-7.84-7.84-7.84,3.52-7.84,7.84,3.52,7.84,7.84,7.84M57.13,24.65c1.86,0,3.36,1.5,3.36,3.36s-1.5,3.36-3.36,3.36-3.36-1.5-3.36-3.36,1.5-3.36,3.36-3.36"/>
  </g>
</svg>