<?xml version="1.0" encoding="UTF-8"?>
<svg id="Layer_2" data-name="Layer 2" xmlns="http://www.w3.org/2000/svg" viewBox="0 0 84.2 84.17">
  <defs>
    <style>
      .cls-1 {
        fill: #001522;
      }

      .cls-2 {
        fill: #0066b3;
      }
    </style>
  </defs>
  <g id="Layer_1-2" data-name="Layer 1">
    <path class="cls-1" d="M70.91,29.06h0C67.2,9.66,48.47-3.07,29.06.64,9.66,4.35-3.06,23.08.64,42.49c3.71,19.4,22.44,32.13,41.85,28.42,1.51-.29,3-.67,4.46-1.15l-1.31-4c-11.67,3.84-24.51.55-32.91-8.42l4.42-6.63-4.52-9.13v-4.21l-2.9-5.81h-5.2C6.63,15.92,19.98,4.23,35.77,4.21h2.1v2.1h-4.71l-5.81,2.9v9.72h9.66l2.97,2.97v1.24h-15.36l-7.78,5.18v10.52l3.41,3.09,7.58,1.94,1.64,5.03,2.57,10.01h12.16v-7.83l6.5-10.86-2.1-6.31,3.05-4.46h19.34l-.06-.4ZM7.12,35.77l1.3,2.61v4.21l3.89,7.76-2.36,3.51c-3.73-5.3-5.74-11.61-5.74-18.09h2.9ZM49.36,25.25l-5.39,8.1,2.1,6.31-6.1,10.25v4.8h-4.67l-1.64-6.98-2.46-7.39-8.81-2.27-1.35-1.12v-6.31l4.84-3.28h18.31v-7.17l-5.45-5.45h-7.17v-2.9l2.61-1.3h7.91v-5.66c10.85,2.21,19.74,9.95,23.44,20.39h-16.16Z"/>
    <path class="cls-2" d="M83.09,54.58c-2.59-7.55-9.19-14.73-13.15-19.08l-2.61-2.86-2.59,2.86c-3.95,4.31-10.52,11.53-13.17,19.08-1.99,5.52-1.21,11.67,2.1,16.52,2.68,3.83,6.9,6.3,11.55,6.75v6.31h4.21v-6.31c4.63-.44,8.85-2.86,11.55-6.65,3.35-4.87,4.14-11.07,2.1-16.62M77.56,68.66c-1.92,2.66-4.86,4.41-8.12,4.82v-4.04l6.82-6.82-2.99-2.99-3.83,3.85v-8.27l3.83-3.85-2.97-2.97-2.97,2.97-2.99-2.97-2.97,2.97,3.85,3.85v8.27l-3.83-3.85-2.99,2.99,6.82,6.82v4.04c-3.25-.41-6.19-2.16-8.1-4.82-2.5-3.72-3.09-8.4-1.58-12.62,2.21-6.44,8.01-12.94,11.78-17.06,3.77,4.21,9.57,10.63,11.78,17.06,1.53,4.22.95,8.91-1.56,12.62"/>
  </g>
</svg>