<?xml version="1.0" encoding="UTF-8"?>
<svg id="Layer_2" data-name="Layer 2" xmlns="http://www.w3.org/2000/svg" viewBox="0 0 85.8 85.8">
  <defs>
    <style>
      .cls-1 {
        fill: #001522;
      }

      .cls-2 {
        fill: #0066b3;
      }
    </style>
  </defs>
  <g id="Layer_1-2" data-name="Layer 1">
    <path class="cls-1" d="M81.28,13.4v13.07l-6.45,10.75c-.21.35-.32.75-.32,1.16v11.29h4.52v-10.66l6.45-10.75c.21-.35.32-.75.32-1.16v-13.69c0-3.16-2.53-5.73-5.65-5.73-.56,0-1.1.11-1.62.27-.88-2.01-2.85-3.42-5.16-3.42-.42,0-.84.06-1.23.15-.5-2.65-2.79-4.66-5.54-4.66-1.28,0-2.44.45-3.39,1.18-.95-.73-2.11-1.18-3.39-1.18-3.11,0-5.65,2.57-5.65,5.73v16.85h-2.2c-1.58-.04-2.82.11-3.7.97-.87.85-.87,1.88-.87,2.33v6.67l9.03,9.03v1.32h4.51v-3.19l-9.03-9.03v-3.58h6.77V5.73c0-.67.51-1.22,1.13-1.22s1.13.54,1.13,1.22v10.07h4.52V5.73c0-.67.51-1.22,1.13-1.22s1.13.54,1.13,1.22v10.07h4.51v-5.56c0-.67.51-1.21,1.13-1.21s1.13.54,1.13,1.21v5.56h4.52v-2.41c0-.67.51-1.22,1.13-1.22s1.13.55,1.13,1.22"/>
    <path class="cls-2" d="M5.73,31.61h16.85v2.2c-.04,1.58.11,2.82.97,3.7.85.87,1.88.87,2.33.87h6.67l9.03-9.03h1.32v-4.52h-3.19l-9.03,9.03h-3.58v-6.77H5.73c-.67,0-1.21-.51-1.21-1.13s.54-1.13,1.21-1.13h10.08v-4.52H5.73c-.67,0-1.21-.51-1.21-1.13s.54-1.13,1.21-1.13h10.08v-4.52h-5.56c-.67,0-1.22-.51-1.22-1.13s.55-1.13,1.22-1.13h5.56v-4.51h-2.41c-.67,0-1.22-.51-1.22-1.13s.55-1.13,1.22-1.13h13.07l10.75,6.45c.35.21.75.32,1.16.32h11.29v-4.51h-10.66L28.26.32c-.35-.21-.75-.32-1.16-.32h-13.7C10.24,0,7.67,2.53,7.67,5.65c0,.56.11,1.1.27,1.62-2.01.88-3.42,2.85-3.42,5.16,0,.43.06.84.15,1.24C2.01,14.15,0,16.44,0,19.19c0,1.28.45,2.44,1.18,3.39C.45,23.53,0,24.69,0,25.97,0,29.08,2.57,31.61,5.73,31.61"/>
    <path class="cls-1" d="M38.38,59.92v-6.67l-9.03-9.03v-1.32h-4.51v3.19l9.03,9.03v3.58h-6.77v21.36c0,.67-.51,1.22-1.13,1.22s-1.13-.54-1.13-1.22v-10.07h-4.52v10.07c0,.67-.51,1.22-1.13,1.22s-1.13-.54-1.13-1.22v-10.07h-4.51v5.56c0,.67-.51,1.21-1.13,1.21s-1.13-.54-1.13-1.21v-5.56h-4.51v2.41c0,.67-.51,1.22-1.13,1.22s-1.13-.55-1.13-1.22v-13.07l6.45-10.76c.21-.35.32-.75.32-1.16v-11.29h-4.51v10.66L.32,57.54c-.21.35-.32.75-.32,1.16v13.69c0,3.16,2.53,5.73,5.65,5.73.56,0,1.1-.11,1.62-.27.88,2.01,2.85,3.42,5.16,3.42.43,0,.84-.06,1.23-.15.5,2.65,2.79,4.66,5.54,4.66,1.28,0,2.44-.45,3.39-1.17.95.73,2.11,1.17,3.39,1.17,3.11,0,5.65-2.57,5.65-5.73v-16.85h2.2c1.58.04,2.82-.11,3.7-.97.87-.85.87-1.88.87-2.33"/>
    <path class="cls-2" d="M85.8,59.83c0-3.11-2.57-5.64-5.73-5.64h-16.85v-2.2c.04-1.59-.11-2.82-.97-3.71-.85-.87-1.88-.87-2.33-.87h-6.67l-9.03,9.03h-1.32v4.52h3.19l9.03-9.03h3.58v6.77h21.36c.67,0,1.21.51,1.21,1.13s-.54,1.13-1.21,1.13h-10.08v4.51h10.08c.67,0,1.21.51,1.21,1.13s-.54,1.13-1.21,1.13h-10.08v4.52h5.56c.67,0,1.21.51,1.21,1.13s-.54,1.13-1.21,1.13h-5.56v4.52h2.41c.67,0,1.22.51,1.22,1.13s-.55,1.13-1.22,1.13h-13.07l-10.75-6.45c-.35-.21-.75-.32-1.16-.32h-11.29v4.52h10.66l10.76,6.45c.35.21.75.32,1.16.32h13.69c3.16,0,5.73-2.53,5.73-5.64,0-.57-.11-1.1-.27-1.62,2.01-.88,3.42-2.85,3.42-5.16,0-.42-.06-.84-.15-1.23,2.65-.49,4.66-2.79,4.66-5.54,0-1.28-.45-2.44-1.18-3.39.73-.95,1.18-2.11,1.18-3.39"/>
  </g>
</svg>