<?xml version="1.0" encoding="UTF-8"?>
<svg id="Layer_2" data-name="Layer 2" xmlns="http://www.w3.org/2000/svg" viewBox="0 0 86.07 80.2">
  <defs>
    <style>
      .cls-1 {
        fill: #001522;
      }

      .cls-2 {
        fill: #0066b3;
      }
    </style>
  </defs>
  <g id="Layer_1-2" data-name="Layer 1">
    <polygon class="cls-2" points="47.14 48.59 39.08 40.53 24.26 55.34 27.01 58.12 39.08 46.07 47.14 54.13 61.95 39.3 59.19 36.54 47.14 48.59"/>
    <path class="cls-1" d="M12.3,30.32c-1.68,4.05-2.52,8.31-2.52,12.7h3.91c0-3.85.74-7.63,2.23-11.19,1.49-3.56,3.62-6.77,6.34-9.49l-2.76-2.76c-3.09,3.09-5.52,6.71-7.2,10.76v-.02Z"/>
    <path class="cls-1" d="M72.38,43.01h3.91c0-4.38-.84-8.65-2.52-12.7-1.68-4.05-4.09-7.67-7.2-10.76l-2.76,2.76c2.74,2.74,4.87,5.93,6.34,9.49,1.49,3.58,2.23,7.33,2.23,11.19v.02Z"/>
    <path class="cls-1" d="M55.73,73.75l-1.51-3.62c-3.56,1.49-7.32,2.25-11.19,2.25h-.08c-3.83,0-7.57-.74-11.13-2.19l-1.49,3.62c4.03,1.66,8.28,2.5,12.62,2.5h.08c4.38,0,8.65-.86,12.68-2.54l.02-.02Z"/>
    <path class="cls-1" d="M43.03,15.65c4.32,0,7.82-3.5,7.82-7.83s-3.5-7.82-7.82-7.82-7.83,3.5-7.83,7.82,3.5,7.83,7.83,7.83M43.03,3.91c2.15,0,3.91,1.76,3.91,3.91s-1.76,3.91-3.91,3.91-3.91-1.76-3.91-3.91,1.76-3.91,3.91-3.91"/>
    <path class="cls-1" d="M31.3,23.75v7.55h3.91v-7.55c0-1.23,1-2.23,2.23-2.23h11.17c1.23,0,2.23,1,2.23,2.23v3.64h-11.74v3.91h15.65v-7.55c0-3.38-2.76-6.14-6.14-6.14h-11.17c-3.38,0-6.14,2.76-6.14,6.14"/>
    <path class="cls-1" d="M11.74,64.55c4.32,0,7.83-3.5,7.83-7.83s-3.5-7.82-7.83-7.82-7.83,3.5-7.83,7.82,3.5,7.83,7.83,7.83M11.74,52.81c2.15,0,3.91,1.76,3.91,3.91s-1.76,3.91-3.91,3.91-3.91-1.76-3.91-3.91,1.76-3.91,3.91-3.91"/>
    <path class="cls-1" d="M0,72.65v7.55h3.91v-7.55c0-1.23,1-2.23,2.23-2.23h11.19c1.23,0,2.23,1,2.23,2.23v3.64H7.83v3.91h15.65v-7.55c0-3.38-2.76-6.14-6.14-6.14H6.14c-3.38,0-6.14,2.76-6.14,6.14"/>
    <path class="cls-1" d="M74.33,64.55c4.32,0,7.82-3.5,7.82-7.83s-3.5-7.82-7.82-7.82-7.83,3.5-7.83,7.82,3.5,7.83,7.83,7.83M74.33,52.81c2.15,0,3.91,1.76,3.91,3.91s-1.76,3.91-3.91,3.91-3.91-1.76-3.91-3.91,1.76-3.91,3.91-3.91"/>
    <path class="cls-1" d="M79.93,66.51h-11.19c-3.38,0-6.14,2.76-6.14,6.14v7.55h3.91v-7.55c0-1.23,1-2.23,2.23-2.23h11.19c1.23,0,2.23,1,2.23,2.23v3.64h-11.74v3.91h15.65v-7.55c0-3.38-2.76-6.14-6.14-6.14"/>
  </g>
</svg>